<svg xmlns="http://www.w3.org/2000/svg" version="1.1" xmlns:xlink="http://www.w3.org/1999/xlink" xmlns:svgjs="http://svgjs.dev/svgjs" width="1500" height="518" viewBox="0 0 1500 518"><g transform="matrix(1,0,0,1,-0.9090909090909918,0.48110118271438296)"><svg viewBox="0 0 396 137" data-background-color="#ffffff" preserveAspectRatio="xMidYMid meet" height="518" width="1500" xmlns="http://www.w3.org/2000/svg" xmlns:xlink="http://www.w3.org/1999/xlink"><g id="tight-bounds" transform="matrix(1,0,0,1,0.2400000000000091,-0.12724104639357847)"><svg viewBox="0 0 395.52 137.25448209278719" height="137.25448209278719" width="395.52"><g><svg viewBox="0 0 628.3591464785243 218.05498892135836" height="137.25448209278719" width="395.52"><g transform="matrix(1,0,0,1,232.83914647852436,77.715210371729)"><svg viewBox="0 0 395.52 62.62456817790036" height="62.62456817790036" width="395.52"><g id="textblocktransform"><svg viewBox="0 0 395.52 62.62456817790036" height="62.62456817790036" width="395.52" id="textblock"><g><svg viewBox="0 0 395.52 62.62456817790036" height="62.62456817790036" width="395.52"><g transform="matrix(1,0,0,1,0,0)"><svg width="395.52" viewBox="1.27 -35.82 283.23 44.85" height="62.62456817790036" data-palette-color="#111111"><path d="M9.72 0L9.72-23.66 20.95-23.66 20.95 0 9.72 0ZM1.27-25.34L1.27-32.4 29.39-32.4 29.39-25.34 1.27-25.34ZM41.62-25.93L41.62 0 37.3 0 30.83-6.47 30.83-19.46 37.3-25.93 41.62-25.93ZM58.96-10.4L43.33-10.4 43.33-14.92 49.02-14.92 49.02-19.46 43.33-19.46 43.33-25.93 52.49-25.93 58.96-19.46 58.96-10.4ZM54.61 0L43.33 0 43.33-6.05 57.83-6.05 57.83-3.25 54.61 0ZM74.12-25.93L74.12 0 69.79 0 63.33-6.47 63.33-19.46 69.79-25.93 74.12-25.93ZM80.61-19.46L75.83-19.46 75.83-25.93 84.93-25.93 91.4-19.46 91.4-15.58 80.61-15.58 80.61-19.46ZM84.93 0L75.83 0 75.83-6.05 80.61-6.05 80.61-9.3 91.4-9.3 91.4-6.47 84.93 0ZM95.84 0L95.84-35.82 106.63-35.82 106.63 0 95.84 0ZM113.1 0L113.1-19.46 108.34-19.46 108.34-22.73 111.52-25.93 117.42-25.93 123.92-19.46 123.92 0 113.1 0ZM135.95 0L135.95-23.66 147.18-23.66 147.18 0 135.95 0ZM127.5-25.34L127.5-32.4 155.63-32.4 155.63-25.34 127.5-25.34ZM186.19-19.46L186.19-6.47 179.72 0 172.5 0 172.5-6.05 175.18-6.05 175.18-19.46 172.5-19.46 172.5-25.93 179.72-25.93 186.19-19.46ZM167.98-19.46L167.98-6.05 170.79-6.05 170.79 0 163.54 0 157.07-6.47 157.07-19.46 163.54-25.93 170.79-25.93 170.79-19.46 167.98-19.46ZM208.53-35.82L219.32-35.82 219.32 0 208.53 0 208.53-35.82ZM201.62-19.46L201.62-6.05 206.82-6.05 206.82-2.56 204.26 0 196.66 0 190.83-5.83 190.83-20.09 196.66-25.93 206.82-25.93 206.82-19.46 201.62-19.46ZM252.03 0L241.49 0 241.49-19.46 226.13-19.46 226.13-22.68 229.38-25.93 245.56-25.93 252.03-19.46 252.03 0ZM228.3-15.09L239.78-15.09 239.78-10.6 234.21-10.6 234.21-6.05 239.78-6.05 239.78-3.2 236.55 0 228.3 0 223.96-4.27 223.96-10.77 228.3-15.09ZM284.5-25.93L271.34 9.03 260.99 9.03 274.13-25.93 284.5-25.93ZM263.58-2.17L254.01-25.93 264.77-25.93 268.41-15.38 263.58-2.17Z" opacity="1" transform="matrix(1,0,0,1,0,0)" fill="#111111" class="wordmark-text-0" data-fill-palette-color="primary" id="text-0"></path></svg></g></svg></g></svg></g></svg></g><g><svg viewBox="0 0 218.05498892135836 218.05498892135836" height="218.05498892135836" width="218.05498892135836"><g><svg xmlns="http://www.w3.org/2000/svg" xmlns:xlink="http://www.w3.org/1999/xlink" version="1.1" x="0" y="0" viewBox="5.5 5.5 53 53" enable-background="new 0 0 64 64" xml:space="preserve" height="218.05498892135836" width="218.05498892135836" class="icon-icon-0" data-fill-palette-color="accent" id="icon-0"><g fill="#111111" data-fill-palette-color="accent"><path d="M58 32.5c0.276 0 0.5-0.224 0.5-0.5s-0.224-0.5-0.5-0.5h-9.5v-3H58c0.276 0 0.5-0.224 0.5-0.5s-0.224-0.5-0.5-0.5h-9.5V24c0-0.276-0.224-0.5-0.5-0.5h-3.5V20c0-0.276-0.224-0.5-0.5-0.5h-3.5V16c0-0.276-0.224-0.5-0.5-0.5h-3.5V6c0-0.276-0.224-0.5-0.5-0.5S35.5 5.724 35.5 6v9.5h-3V6c0-0.276-0.224-0.5-0.5-0.5S31.5 5.724 31.5 6v9.5h-3V6c0-0.276-0.224-0.5-0.5-0.5S27.5 5.724 27.5 6v9.5H24c-0.276 0-0.5 0.224-0.5 0.5v3.5H20c-0.276 0-0.5 0.224-0.5 0.5v3.5H16c-0.276 0-0.5 0.224-0.5 0.5v3.5H6c-0.276 0-0.5 0.224-0.5 0.5s0.224 0.5 0.5 0.5h9.5v3H6c-0.276 0-0.5 0.224-0.5 0.5s0.224 0.5 0.5 0.5h9.5v3H6c-0.276 0-0.5 0.224-0.5 0.5s0.224 0.5 0.5 0.5h9.5V40c0 0.276 0.224 0.5 0.5 0.5h3.5V44c0 0.276 0.224 0.5 0.5 0.5h3.5V48c0 0.276 0.224 0.5 0.5 0.5h3.5V58c0 0.276 0.224 0.5 0.5 0.5s0.5-0.224 0.5-0.5v-9.5h3V58c0 0.276 0.224 0.5 0.5 0.5s0.5-0.224 0.5-0.5v-9.5h3V58c0 0.276 0.224 0.5 0.5 0.5s0.5-0.224 0.5-0.5v-9.5H40c0.276 0 0.5-0.224 0.5-0.5v-3.5H44c0.276 0 0.5-0.224 0.5-0.5v-3.5H48c0.276 0 0.5-0.224 0.5-0.5v-3.5H58c0.276 0 0.5-0.224 0.5-0.5s-0.224-0.5-0.5-0.5h-9.5v-3H58zM24.5 16.5h15v3h-15V16.5zM16.5 39.5v-15h3v15H16.5zM39.5 47.5h-15v-3h15V47.5zM43.5 43.5h-23v-23h23V43.5zM47.5 39.5h-3v-15h3V39.5z" fill="#111111" data-fill-palette-color="accent"></path></g></svg></g></svg></g></svg></g><defs></defs></svg><rect width="395.52" height="137.25448209278719" fill="none" stroke="none" visibility="hidden"></rect></g></svg></g></svg>