<?xml version="1.0" encoding="UTF-8"?>
<svg id="icon-0" xmlns="http://www.w3.org/2000/svg" viewBox="0 0 569.61 521.36">
  <defs>
    <style>
      .cls-1 {
        fill: #111;
        stroke-width: 0px;
      }
    </style>
  </defs>
  <g id="tight-bounds">
    <g>
      <path class="cls-1" d="m541.22,266.78c2.7,0,4.9-2.19,4.9-4.9s-2.19-4.9-4.9-4.9h-93.02v-29.38h93.02c2.7,0,4.9-2.19,4.9-4.9s-2.19-4.9-4.9-4.9h-93.02v-34.27c0-2.7-2.19-4.9-4.9-4.9h-34.27v-34.27c0-2.7-2.19-4.9-4.9-4.9h-34.27v-34.27c0-2.7-2.19-4.9-4.9-4.9h-34.27V7.3c0-2.7-2.19-4.9-4.9-4.9s-4.9,2.19-4.9,4.9v93.02h-29.38V7.3c0-2.7-2.19-4.9-4.9-4.9s-4.9,2.19-4.9,4.9v93.02h-29.38V7.3c0-2.7-2.19-4.9-4.9-4.9s-4.9,2.19-4.9,4.9v93.02h-34.27c-2.7,0-4.9,2.19-4.9,4.9v34.27h-34.27c-2.7,0-4.9,2.19-4.9,4.9v34.27h-34.27c-2.7,0-4.9,2.19-4.9,4.9v34.27H32.05c-2.7,0-4.9,2.19-4.9,4.9s2.19,4.9,4.9,4.9h93.02v29.38H32.05c-2.7,0-4.9,2.19-4.9,4.9s2.19,4.9,4.9,4.9h93.02v29.38H32.05c-2.7,0-4.9,2.19-4.9,4.9s2.19,4.9,4.9,4.9h93.02v34.27c0,2.7,2.19,4.9,4.9,4.9h34.27v34.27c0,2.7,2.19,4.9,4.9,4.9h34.27v34.27c0,2.7,2.19,4.9,4.9,4.9h34.27v93.02c0,2.7,2.19,4.9,4.9,4.9s4.9-2.19,4.9-4.9v-93.02h29.38v93.02c0,2.7,2.19,4.9,4.9,4.9s4.9-2.19,4.9-4.9v-93.02h29.38v93.02c0,2.7,2.19,4.9,4.9,4.9s4.9-2.19,4.9-4.9v-93.02h34.27c2.7,0,4.9-2.19,4.9-4.9v-34.27h34.27c2.7,0,4.9-2.19,4.9-4.9v-34.27h34.27c2.7,0,4.9-2.19,4.9-4.9v-34.27h93.02c2.7,0,4.9-2.19,4.9-4.9s-2.19-4.9-4.9-4.9h-93.02v-29.38h93.02ZM213.2,110.11h146.88v29.38h-146.88v-29.38Zm-78.33,225.21v-146.88h29.38v146.88h-29.38Zm225.21,78.33h-146.88v-29.38h146.88v29.38Zm39.17-39.17h-225.21v-225.21h225.21v225.21Zm39.17-39.17h-29.38v-146.88h29.38v146.88Z"/>
      <g>
        <polyline class="cls-1" points="260.84 342.19 223.52 342.19 223.52 263.57 260.84 263.57"/>
        <polyline class="cls-1" points="288.89 257.98 195.44 257.98 195.44 234.52 288.89 234.52"/>
      </g>
      <g>
        <polyline class="cls-1" points="312.45 191.01 349.77 191.01 349.76 269.64 312.44 269.64"/>
        <polyline class="cls-1" points="284.39 275.22 377.84 275.23 377.84 298.69 284.39 298.68"/>
      </g>
    </g>
  </g>
</svg>