<?xml version="1.0" encoding="UTF-8"?>
<svg id="icon-0" xmlns="http://www.w3.org/2000/svg" viewBox="0 0 1649.35 518">
  <defs>
    <style>
      .cls-1 {
        fill: #111;
        stroke-width: 0px;
      }
    </style>
  </defs>
  <g id="tight-bounds">
    <g id="textblocktransform">
      <path id="text-0" class="cls-1" d="m62.91,339.74v-128.06h60.78v128.06h-60.78ZM17.18,202.59v-38.21h152.2v38.21H17.18Zm218.39-3.19v140.35h-23.38l-35.02-35.02v-70.31l35.02-35.02h23.38Zm93.85,84.06h-84.6v-24.46h30.8v-24.57h-30.8v-35.02h49.58l35.02,35.02v49.04Zm-23.54,56.29h-61.05v-32.75h78.48v15.15l-17.43,17.59Zm105.6-140.35v140.35h-23.44l-34.96-35.02v-70.31l34.96-35.02h23.44Zm35.13,35.02h-25.87v-35.02h49.25l35.02,35.02v21h-58.4v-21Zm23.38,105.33h-49.25v-32.75h25.87v-17.59h58.4v15.32l-35.02,35.02Zm59.05,0v-193.87h58.4v193.87h-58.4Zm93.42,0v-105.33h-25.76v-17.7l17.21-17.32h31.93l35.18,35.02v105.33h-58.56Zm123.67,0v-128.06h60.78v128.06h-60.78Zm-45.74-137.15v-38.21h152.25v38.21h-152.25Zm317.66,31.83v70.31l-35.02,35.02h-39.08v-32.75h14.51v-72.58h-14.51v-35.02h39.08l35.02,35.02Zm-98.56,0v72.58h15.21v32.75h-39.24l-35.02-35.02v-70.31l35.02-35.02h39.24v35.02h-15.21Zm219.48-88.55h58.4v193.87h-58.4v-193.87Zm-37.4,88.55v72.58h28.14v18.89l-13.86,13.86h-41.13l-31.55-31.55v-77.18l31.55-31.61h54.99v35.02h-28.14Zm272.84,105.33h-57.05v-105.33h-83.14v-17.43l17.59-17.59h87.57l35.02,35.02v105.33Zm-128.44-81.67h62.13v24.3h-30.15v24.63h30.15v15.43l-17.48,17.32h-44.65l-23.49-23.11v-35.18l23.49-23.38Zm304.18-58.67l-71.23,189.22h-56.02l71.12-189.22h56.13Zm-113.23,128.6l-51.8-128.6h58.24l19.7,57.1-26.14,71.5Z"/>
    </g>
  </g>
</svg>